<svg width="35" height="36" viewBox="0 0 35 36" fill="none" xmlns="http://www.w3.org/2000/svg">
<path d="M17.335 13.8978C15.254 13.8978 13.5755 15.7293 13.5755 18C13.5755 20.2707 15.254 22.1022 17.335 22.1022C19.416 22.1022 21.0945 20.2707 21.0945 18C21.0945 15.7293 19.416 13.8978 17.335 13.8978ZM17.335 20.667C15.9902 20.667 14.8908 19.4709 14.8908 18C14.8908 16.5291 15.9869 15.333 17.335 15.333C18.683 15.333 19.7791 16.5291 19.7791 18C19.7791 19.4709 18.6798 20.667 17.335 20.667ZM22.1252 13.73C22.1252 14.262 21.7325 14.6868 21.2483 14.6868C20.7607 14.6868 20.3714 14.2584 20.3714 13.73C20.3714 13.2016 20.764 12.7732 21.2483 12.7732C21.7325 12.7732 22.1252 13.2016 22.1252 13.73ZM24.6151 14.7011C24.5595 13.4194 24.2912 12.2841 23.4307 11.3487C22.5734 10.4133 21.5329 10.1205 20.3583 10.0562C19.1476 9.98126 15.519 9.98126 14.3084 10.0562C13.137 10.1169 12.0965 10.4097 11.236 11.3451C10.3755 12.2805 10.1104 13.4158 10.0515 14.6975C9.98282 16.0185 9.98282 19.9779 10.0515 21.2989C10.1072 22.5806 10.3755 23.7159 11.236 24.6513C12.0965 25.5867 13.1337 25.8795 14.3084 25.9438C15.519 26.0187 19.1476 26.0187 20.3583 25.9438C21.5329 25.8831 22.5734 25.5903 23.4307 24.6513C24.2879 23.7159 24.5562 22.5806 24.6151 21.2989C24.6838 19.9779 24.6838 16.0221 24.6151 14.7011ZM23.0511 22.7163C22.7959 23.416 22.3018 23.9551 21.6573 24.2372C20.692 24.6549 18.4016 24.5585 17.335 24.5585C16.2683 24.5585 13.9746 24.6513 13.0127 24.2372C12.3714 23.9587 11.8773 23.4196 11.6188 22.7163C11.236 21.6631 11.3243 19.1639 11.3243 18C11.3243 16.8361 11.2393 14.3334 11.6188 13.2837C11.874 12.584 12.3681 12.0449 13.0127 11.7628C13.9779 11.3451 16.2683 11.4415 17.335 11.4415C18.4016 11.4415 20.6953 11.3487 21.6573 11.7628C22.2986 12.0413 22.7926 12.5804 23.0511 13.2837C23.4339 14.3369 23.3456 16.8361 23.3456 18C23.3456 19.1639 23.4339 21.6666 23.0511 22.7163Z" fill="black"/>
</svg>
