<svg width="36" height="36" viewBox="0 0 36 36" fill="none" xmlns="http://www.w3.org/2000/svg">
<path d="M24.184 13.9875C24.1941 14.1625 24.1941 14.3375 24.1941 14.5125C24.1941 19.85 20.934 26 14.9755 26C13.1397 26 11.4345 25.3375 10 24.1875C10.2608 24.225 10.5116 24.2375 10.7824 24.2375C12.2971 24.2375 13.6915 23.6 14.8049 22.5125C13.3805 22.475 12.1868 21.3125 11.7755 19.7125C11.9761 19.75 12.1767 19.775 12.3874 19.775C12.6783 19.775 12.9692 19.725 13.2401 19.6375C11.7555 19.2625 10.642 17.6375 10.642 15.675V15.625C11.0733 15.925 11.5749 16.1125 12.1065 16.1375C11.2338 15.4125 10.662 14.175 10.662 12.775C10.662 12.025 10.8225 11.3375 11.1034 10.7375C12.6984 13.1875 15.0958 14.7875 17.7841 14.9625C17.734 14.6625 17.7039 14.35 17.7039 14.0375C17.7039 11.8125 19.1484 10 20.9439 10C21.8768 10 22.7194 10.4875 23.3113 11.275C24.0435 11.1 24.7457 10.7625 25.3677 10.3C25.1269 11.2375 24.6153 12.025 23.9433 12.525C24.5953 12.4375 25.2272 12.2125 25.809 11.9C25.3677 12.7 24.816 13.4125 24.184 13.9875Z" fill="black"/>
</svg>
